<svg xmlns="http://www.w3.org/2000/svg">
  <defs>
    <symbol id="help">
        <path fill-rule="evenodd" clip-rule="evenodd" d="M12 3C7.02944 3 3 7.02944 3 12C3 16.9706 7.02944 21 12 21C16.9706 21 21 16.9706 21 12C21 7.02944 16.9706 3 12 3ZM1 12C1 5.92487 5.92487 1 12 1C18.0751 1 23 5.92487 23 12C23 18.0751 18.0751 23 12 23C5.92487 23 1 18.0751 1 12Z" fill="#212429"/>
        <path fill-rule="evenodd" clip-rule="evenodd" d="M12.2582 8.02431C11.7927 7.94446 11.314 8.03194 10.9068 8.27126C10.4996 8.51057 10.1902 8.88628 10.0335 9.33184C9.85018 9.85282 9.27926 10.1266 8.75827 9.94333C8.23728 9.76005 7.96351 9.18914 8.14678 8.66815C8.46025 7.77704 9.07898 7.02562 9.89339 6.54699C10.7078 6.06836 11.6653 5.8934 12.5964 6.0531C13.5274 6.2128 14.3719 6.69685 14.9802 7.41952C15.5884 8.14204 15.9214 9.05647 15.9201 10.0009C15.9197 11.5313 14.7851 12.5419 13.9748 13.082C13.5392 13.3725 13.1107 13.586 12.795 13.7263C12.6358 13.7971 12.5016 13.8508 12.405 13.8876C12.3566 13.906 12.3174 13.9203 12.2888 13.9305L12.2541 13.9427L12.243 13.9464L12.2391 13.9477L12.2376 13.9483C12.2373 13.9484 12.2363 13.9487 11.9201 13L12.2363 13.9487C11.7124 14.1233 11.1461 13.8402 10.9714 13.3162C10.7969 12.7926 11.0796 12.2267 11.6028 12.0517L11.6016 12.0521C11.6017 12.0521 11.6018 12.052 11.6028 12.0517L11.6188 12.0461C11.6342 12.0406 11.6594 12.0314 11.693 12.0186C11.7605 11.9929 11.8607 11.9529 11.9827 11.8987C12.2296 11.789 12.551 11.6275 12.8654 11.4179C13.555 10.9582 13.9201 10.4691 13.9201 9.99999L13.9201 9.9985C13.9208 9.52618 13.7543 9.06886 13.4502 8.70752C13.146 8.34618 12.7238 8.10416 12.2582 8.02431Z" fill="#212429"/>
        <path fill-rule="evenodd" clip-rule="evenodd" d="M12 15C12.5523 15 13 15.4477 13 16V16.5C13 17.0523 12.5523 17.5 12 17.5C11.4477 17.5 11 17.0523 11 16.5V16C11 15.4477 11.4477 15 12 15Z" fill="#212429"/>
     </symbol>

    <symbol id="headerLogo">
    <g clip-path="url(#clip0_17869_61)">
      <rect y="1" width="30" height="30" fill="#212429"/>
      <rect x="38" width="32" height="32" rx="16" fill="#212429"/>
      <path d="M78 0L110 32H78V0Z" fill="#212429"/>
      </g>
      <defs>
      <clipPath id="clip0_17869_61">
      <rect width="110" height="32" fill="white"/>
      </clipPath>
      </defs>
    </symbol>

    <symbol id="accordionArrow">
      <path d="M1 1L9 9L17 1" stroke="#495057" stroke-width="2" stroke-linecap="round" stroke-linejoin="round"/>
    </symbol>

    <symbol id='modalClose'>
      <path fill-rule="evenodd" clip-rule="evenodd" d="M12.4714 3.52861C12.7318 3.78896 12.7318 4.21107 12.4714 4.47141L4.47141 12.4714C4.21107 12.7318 3.78896 12.7318 3.52861 12.4714C3.26826 12.2111 3.26826 11.789 3.52861 11.5286L11.5286 3.52861C11.789 3.26826 12.2111 3.26826 12.4714 3.52861Z" fill="#495057"/>
      <path fill-rule="evenodd" clip-rule="evenodd" d="M3.52861 3.52861C3.78896 3.26826 4.21107 3.26826 4.47141 3.52861L12.4714 11.5286C12.7318 11.789 12.7318 12.2111 12.4714 12.4714C12.2111 12.7318 11.789 12.7318 11.5286 12.4714L3.52861 4.47141C3.26826 4.21107 3.26826 3.78896 3.52861 3.52861Z" fill="#495057"/>
    </symbol>
    
    <symbol id='tooltip'>
      <path fill-rule="evenodd" clip-rule="evenodd" d="M12 3C7.02944 3 3 7.02944 3 12C3 16.9706 7.02944 21 12 21C16.9706 21 21 16.9706 21 12C21 7.02944 16.9706 3 12 3ZM1 12C1 5.92487 5.92487 1 12 1C18.0751 1 23 5.92487 23 12C23 18.0751 18.0751 23 12 23C5.92487 23 1 18.0751 1 12Z" fill="#212429"/>
      <path fill-rule="evenodd" clip-rule="evenodd" d="M12.2581 8.02432C11.7926 7.94447 11.3138 8.03195 10.9066 8.27126C10.4994 8.51058 10.1901 8.88629 10.0333 9.33184C9.85006 9.85283 9.27914 10.1266 8.75815 9.94333C8.23716 9.76006 7.96339 9.18915 8.14666 8.66816C8.46013 7.77705 9.07886 7.02563 9.89327 6.547C10.7077 6.06837 11.6652 5.89341 12.5962 6.05311C13.5273 6.2128 14.3717 6.69686 14.9801 7.41953C15.5883 8.14205 15.9213 9.05648 15.92 10.0009C15.9195 11.5313 14.7849 12.5419 13.9747 13.082C13.5391 13.3725 13.1105 13.586 12.7949 13.7263C12.6356 13.7971 12.5015 13.8508 12.4049 13.8876C12.3565 13.906 12.3173 13.9203 12.2887 13.9305L12.254 13.9427L12.2429 13.9464L12.239 13.9478L12.2375 13.9483C12.2372 13.9484 12.2362 13.9487 11.92 13L12.2362 13.9487C11.7123 14.1233 11.146 13.8402 10.9713 13.3162C10.7968 12.7926 11.0794 12.2267 11.6027 12.0517L11.6014 12.0521C11.6015 12.0521 11.6016 12.052 11.6027 12.0517L11.6187 12.0461C11.6341 12.0406 11.6593 12.0314 11.6929 12.0186C11.7603 11.9929 11.8606 11.9529 11.9826 11.8987C12.2294 11.789 12.5509 11.6275 12.8653 11.4179C13.5549 10.9582 13.92 10.4691 13.92 10L13.92 9.99851C13.9207 9.52619 13.7542 9.06886 13.45 8.70753C13.1459 8.34619 12.7236 8.10417 12.2581 8.02432Z" fill="#212429"/>
      <path fill-rule="evenodd" clip-rule="evenodd" d="M12 15C12.5523 15 13 15.4477 13 16V16.5C13 17.0523 12.5523 17.5 12 17.5C11.4477 17.5 11 17.0523 11 16.5V16C11 15.4477 11.4477 15 12 15Z" fill="#212429"/>
    </symbol>
    
  </defs>
</svg>
